<?xml version="1.0" encoding="UTF-8"?>
<svg id="Layer_2" data-name="Layer 2" xmlns="http://www.w3.org/2000/svg" viewBox="0 0 85.25 41.26">
  <defs>
    <style>
      .cls-1 {
        fill: #fff;
      }
    </style>
  </defs>
  <g id="Layer_1-2" data-name="Layer 1">
    <g>
      <g>
        <path class="cls-1" d="M47.65,10.52c0,2.78-2.25,5.03-5.03,5.03s-5.03-2.25-5.03-5.03,2.25-5.03,5.03-5.03,5.03,2.25,5.03,5.03ZM40.06,14.18c.82-.99,1.58-1.9,2.29-2.9v-3.34s-.74.63-.74.63l-.14-.17.64-.67c.25-.26.35-.62.16-.97l-1.25,1.41c-.08,1.57.38,2.82-.73,3.51l-1.65,1.03c.35.57.82,1.09,1.41,1.47ZM45.02,14.19c.66-.48,1.09-.95,1.38-1.52l-1.64-1.01c-.24-.15-.69-.58-.69-.86l-.02-2.63-1.28-1.43c-.09.21-.12.62-.02.73l.73.8s.08.17.09.22c0,.03-.14.07-.17.05l-.69-.63v3.38s2.31,2.9,2.31,2.9Z"/>
        <path class="cls-1" d="M35.31,16.72c-.32-.74-1.04-.98-1.79-.96.49-.71.49-1.47.03-2.08l-.93-1.25c-.15-.2-.21-.68-.1-.89.1-.2.43-.51.69-.54l3.95-.38c.06,1.91,1.04,3.57,2.63,4.61l-2.27,3.18c-.16.22-.65.37-.88.35-.29-.03-.61-.34-.74-.63l-.61-1.4Z"/>
        <path class="cls-1" d="M51.7,15.74c-.78.02-1.47.28-1.79,1.02l-.59,1.38c-.11.26-.41.55-.67.61-.24.06-.77-.1-.94-.35l-2.28-3.2c1.64-1.03,2.59-2.68,2.65-4.58l3.94.39c.27.03.6.33.7.53.11.23.06.71-.09.91l-.94,1.24c-.41.62-.47,1.26.02,2.07Z"/>
        <path class="cls-1" d="M32.63,8.62l.99-1.36c.44-.6.32-1.35-.09-2.01.81.04,1.49-.25,1.79-.94l.59-1.38c.14-.32.45-.62.74-.65s.76.14.96.42l2.21,3.14c-1.66,1.03-2.59,2.68-2.64,4.57l-3.91-.37c-.27-.03-.6-.33-.71-.51-.14-.22-.1-.68.08-.92Z"/>
        <path class="cls-1" d="M52.49,8.43c.19.26.35.71.26.99-.08.25-.45.61-.79.65l-3.89.37c-.07-1.89-.99-3.55-2.65-4.57l2.25-3.19c.15-.21.59-.37.81-.38.27,0,.65.24.77.51l.63,1.45c.3.7.96,1.07,1.82,1.01-.44.7-.53,1.44-.05,2.06l.83,1.1Z"/>
        <path class="cls-1" d="M45.27,5.76c-1.73-.9-3.6-.92-5.3.01l-1.64-3.58c-.1-.23,0-.75.13-.93.74-1.03,3.11.93,4.17-1.26.33.7.93,1.17,1.69,1.09l1.56-.17c.28-.03.69.07.85.26s.3.73.18,1l-1.63,3.57Z"/>
        <path class="cls-1" d="M44.57,19.95c-.86-.11-1.53.25-1.94,1.08-.37-.73-.99-1.19-1.82-1.09l-1.46.18c-.26.03-.66-.09-.82-.25s-.32-.72-.21-.98l1.64-3.6c1.66.93,3.63.92,5.3,0l1.65,3.61c.1.22-.03.74-.16.92s-.52.35-.78.32l-1.42-.18Z"/>
      </g>
      <g>
        <path class="cls-1" d="M63.27,29.62c.2,2.35-1.47,4.13-3.73,4.27-2.03.13-3.8-1.13-4.14-3.12s.8-3.82,2.76-4.33c.91-.24,1.87-.2,2.74.1,1.35.47,2.24,1.6,2.36,3.07ZM58.62,33.33c1.2.5,2.38-.07,2.87-1.21.76-1.76.4-4.28-1.25-5.18-1.14-.62-2.49-.17-3.05,1.01-.86,1.82-.38,4.61,1.43,5.37Z"/>
        <path class="cls-1" d="M22.05,33.97l-5.77-5.97v4.83c0,.16.2.53.35.58l.85.27h-3c.4-.17,1.1-.21,1.1-.73v-5.71c0-.53-.68-.59-1.1-.73l2.08-.06,4.94,5.37-.06-4.69c0-.46-.74-.46-1.08-.64h2.89s-.79.29-.79.29c-.2.07-.29.53-.3.77l-.11,6.41Z"/>
        <path class="cls-1" d="M76.69,33.99l-5.77-5.99.04,5.03c0,.51.84.48,1.16.64h-2.98c.39-.17,1.09-.22,1.09-.73v-5.68c0-.54-.65-.61-1.09-.75l2.06-.06,4.92,5.34-.04-4.63c0-.48-.71-.5-1.07-.67h2.89s-.8.28-.8.28c-.19.06-.3.5-.31.75l-.11,6.46Z"/>
        <path class="cls-1" d="M35.43,32.3l-.9-1.7-1.1.07c.01.86-.07,1.68.11,2.45.1.46.83.38,1.14.56h-3.51c.39-.18,1.1-.19,1.11-.71.06-1.95.09-3.89-.02-5.82-.03-.48-.75-.45-1.09-.65h2.16c1.28-.02,2.99,0,3.4,1.2.36,1.05-.19,1.82-1.21,2.42.64,1.68,1.68,3.4,3.4,3.99-1.42.1-2.72-.62-3.51-1.82ZM35.56,29.26c.42-.79-.04-1.75-.76-2.15-.42-.23-.86-.3-1.36-.33v3.57c.81-.07,1.7-.32,2.11-1.09Z"/>
        <path class="cls-1" d="M50.87,26.77v5.91c0,.81.6.78,1.26,1h-3.52c.43-.17,1.12-.23,1.12-.81l.02-5.26c0-.24-.09-.71-.28-.79l-.86-.33,3.21-.03c.46,0,.98.1,1.39.27.89.38,1.29,1.31.99,2.26-.38,1.21-1.7,1.97-2.92,1.79,1.3-.28,2.03-.95,1.86-2.22-.15-1.11-1-1.93-2.28-1.79Z"/>
        <path class="cls-1" d="M41.23,32.55c0,.91,1.49.91,2.34.53.41-.18.55-.68.84-1.04l-.37,1.64h-5.03s.7-.27.7-.27c.17-.06.39-.4.39-.63v-5.28c0-.21-.14-.65-.32-.71l-.87-.29h4.66s.5-.26.5-.26l-.2,1.94c-.18-.66-.41-1.24-1.13-1.25l-1.51-.03v2.8s1.75-.01,1.75-.01c.33,0,.52-.24.75-.59l-.09,1.93c-.11-.25-.24-.84-.52-.85l-1.88-.07v2.44Z"/>
        <path class="cls-1" d="M10.22,32.54c0,.86,1.15.88,2.16.62.57-.15.65-.71,1.03-1.19l-.44,1.72-5.02-.02.78-.29c.17-.06.34-.44.34-.66v-5.21c0-.22-.13-.64-.3-.7l-.8-.3h4.55s.51-.26.51-.26l-.18,1.89c-.22-.68-.47-1.2-1.17-1.21h-1.48s0,2.78,0,2.78l1.83-.02c.23,0,.47-.27.67-.55l-.1,1.91c-.14-.39-.24-.87-.63-.88l-1.77-.04.02,2.42Z"/>
        <path class="cls-1" d="M3.47,33.28c1.46.66,2.76-.03,3.42-1.44l-.47,1.74c-1.34.38-2.72.39-3.99-.08-1.4-.52-2.28-1.7-2.41-3.07-.14-1.52.63-2.82,2-3.54,1.38-.73,2.96-.74,4.44-.22l.29,1.72c-.43-.65-.68-1.18-1.37-1.47-.82-.34-1.75-.34-2.57.16-.66.4-1.19,1.15-1.35,2.05-.28,1.68.42,3.43,2.02,4.16Z"/>
        <path class="cls-1" d="M27.54,32.63c0,.22.12.68.28.73l1,.32h-3.51c.39-.17,1.09-.22,1.09-.73l.03-6.02-2.04.07c-.43.02-.53.57-.92.88l.41-1.82c.27.19.59.41.92.41h5.04c.23-.01.5-.21.77-.36l-.36,1.94-.22-.79c-.05-.18-.5-.31-.69-.31l-1.79-.03v5.69Z"/>
        <path class="cls-1" d="M82.18,32.66c0,.26.15.67.35.73l.86.28h-3.43s.85-.33.85-.33c.19-.07.27-.55.27-.78v-5.63s-1.95.04-1.95.04c-.48.01-.62.52-1,.91l.4-1.83c.28.21.59.42.92.42l5.05-.02c.22,0,.5-.2.75-.34l-.35,1.94-.21-.78c-.05-.17-.49-.31-.67-.31l-1.82-.02v5.72Z"/>
        <path class="cls-1" d="M67.09,33.35l1.02.33h-3.52c.41-.19,1.09-.23,1.09-.75v-5.68c0-.58-.79-.57-1.18-.74h3.52s-.84.26-.84.26c-.23.07-.35.58-.35.85v5.07c0,.12.1.61.26.66Z"/>
        <path class="cls-1" d="M41.79,38.89l-.03.56-.83-.02.06,1.18.79.04v.45c-.47.33-1.01.05-1.37-.11-.53.21-1.09.36-1.68.14-.4-.15-.69-.51-.74-.87-.06-.5.16-.89.68-1.12-.35-.28-.57-.68-.5-1.09.08-.46.43-.81.93-.88.48-.07.97.02,1.42.27l-.18.5c-.38-.13-.57-.2-.88-.22-.41-.02-.65.39-.61.68.05.38.41.53.82.5l.54-.04c.13,0,.18-.28.21-.5.03-.19.43-.33.53-.21l.04.71.83.02ZM40.2,40.32c.09-.21.05-.67.03-.89h-1c-.19,0-.5.25-.54.44-.04.21.07.57.29.68.35.18,1.02.23,1.22-.22Z"/>
        <path class="cls-1" d="M10.89,39.19c0,1.14-.93,2.07-2.07,2.07s-2.07-.93-2.07-2.07.93-2.07,2.07-2.07,2.07.93,2.07,2.07ZM10.11,39.21c.01-.82-.51-1.45-1.25-1.46-.8-.01-1.31.61-1.32,1.42s.49,1.47,1.32,1.45c.73-.01,1.24-.59,1.25-1.41Z"/>
        <path class="cls-1" d="M68.43,39.19c0,1.14-.93,2.07-2.07,2.07s-2.07-.93-2.07-2.07.93-2.07,2.07-2.07,2.07.93,2.07,2.07ZM67.63,39.12c-.02-.85-.58-1.39-1.33-1.37s-1.22.65-1.23,1.42c-.01.85.51,1.47,1.33,1.45.77-.02,1.25-.62,1.23-1.5Z"/>
        <path class="cls-1" d="M50.1,41.12l-.81-1.15c-.1-.14-.54-.14-.65-.09l-.02,1.24h-.7s0-3.9,0-3.9l1.67.06c.73.02,1.13.71,1.07,1.37-.05.48-.26.84-.71,1.07l.99,1.4h-.84ZM49.6,39.19c.47-.28.43-.98.03-1.24-.27-.17-.7-.19-1-.16v1.51c.27.03.72.04.96-.11Z"/>
        <polygon class="cls-1" points="4 41.1 3.25 41.13 3.25 39.48 1.42 39.48 1.42 41.12 .68 41.13 .68 37.23 1.42 37.23 1.43 38.9 3.25 38.9 3.25 37.23 3.99 37.23 4 41.1"/>
        <path class="cls-1" d="M73.37,41.12l-.85-1.18c-.08-.11-.5-.11-.63-.07l-.02,1.23h-.68s0-3.89,0-3.89l1.62.04c.71.02,1.14.63,1.12,1.29-.02.52-.23.89-.72,1.17l.99,1.39h-.83ZM72.95,39.13c.33-.27.31-.89.03-1.11s-.74-.26-1.11-.24v1.53c.38.03.82.03,1.08-.18Z"/>
        <polygon class="cls-1" points="21.02 39.45 19.36 39.45 19.35 40.55 21.35 40.56 21.36 41.13 18.63 41.13 18.63 37.23 21.19 37.23 21.2 37.82 19.36 37.82 19.35 38.88 21 38.88 21.02 39.45"/>
        <polygon class="cls-1" points="56.07 39.46 54.4 39.46 54.4 40.55 56.37 40.55 56.37 41.12 53.67 41.13 53.67 37.23 56.24 37.23 56.25 37.82 54.4 37.82 54.4 38.88 56.06 38.88 56.07 39.46"/>
        <path class="cls-1" d="M61.27,41.04c-.81.39-1.72.22-2.35-.35.01-.2.21-.46.36-.57.4.46,1,.61,1.54.43.13-.04.3-.28.32-.4.02-.15-.17-.44-.31-.49l-1.02-.35c-.4-.14-.73-.47-.77-.82-.05-.46.11-.91.53-1.14.68-.36,1.49-.28,2.12.2l-.23.53c-.48-.3-.8-.43-1.3-.35-.17.02-.41.32-.42.47,0,.19.23.44.44.53l1.33.55c.3.12.37.64.32.96-.03.25-.24.63-.57.79Z"/>
        <path class="cls-1" d="M84.14,40.93c-.82.54-1.88.37-2.55-.28l.37-.55c.42.47,1.04.67,1.63.42.12-.05.29-.34.28-.47s-.21-.36-.34-.4l-.94-.31c-.44-.15-.77-.46-.82-.88-.06-.44.13-.92.57-1.13.67-.31,1.45-.25,2.06.22l-.25.54c-.46-.38-.98-.48-1.42-.28-.1.05-.25.29-.26.4-.02.13.15.41.27.46l1.06.39c.37.13.69.41.75.74.07.36-.04.88-.41,1.13Z"/>
        <path class="cls-1" d="M31.58,40.97c-.79.48-1.79.32-2.46-.28.04-.2.22-.45.36-.57.44.48,1.05.65,1.62.4.12-.05.28-.33.27-.46s-.21-.37-.34-.41l-1.01-.34c-.44-.15-.74-.51-.77-.92-.03-.43.17-.87.59-1.06.69-.31,1.44-.24,2.06.23l-.24.53c-.49-.33-.88-.47-1.38-.32-.13.04-.32.31-.33.44-.01.15.19.44.34.49l.94.33c.38.13.74.42.8.73.09.46-.03.96-.45,1.21Z"/>
        <polygon class="cls-1" points="14.95 41.1 14.22 41.12 14.22 37.83 13.11 37.82 13.12 37.23 16.03 37.23 16.04 37.82 14.95 37.82 14.95 41.1"/>
        <polygon class="cls-1" points="78.24 41.11 77.49 41.12 77.49 37.83 76.37 37.82 76.38 37.23 79.31 37.23 79.32 37.82 78.24 37.82 78.24 41.11"/>
        <polygon class="cls-1" points="26.77 40.55 26.79 41.12 24.15 41.13 24.16 37.24 24.88 37.23 24.88 40.55 26.77 40.55"/>
      </g>
    </g>
  </g>
</svg>